<?xml version="1.0" encoding="UTF-8" ?>
<!DOCTYPE svg PUBLIC "-//W3C//DTD SVG 1.1//EN" "http://www.w3.org/Graphics/SVG/1.1/DTD/svg11.dtd">
<svg width="1920pt" height="353pt" viewBox="0 0 1920 353" version="1.1" xmlns="http://www.w3.org/2000/svg">
<g id="#75af26ff">
<path fill="#75af26" opacity="1.00" d=" M 0.00 0.00 L 1920.00 0.00 L 1920.00 175.89 C 1898.41 170.61 1877.20 163.91 1856.14 156.83 C 1836.25 150.39 1816.83 142.66 1797.08 135.82 C 1734.13 112.99 1670.25 92.71 1605.72 74.83 C 1577.62 66.78 1549.26 59.77 1520.86 52.90 C 1498.53 48.22 1476.39 42.70 1454.00 38.27 C 1406.53 28.38 1358.49 20.91 1310.10 17.39 C 1285.12 15.04 1260.13 12.69 1235.03 12.13 C 1210.05 10.55 1185.02 11.84 1160.04 12.62 C 1099.16 16.02 1038.51 23.69 978.67 35.42 C 932.09 44.35 887.02 59.42 842.06 74.25 C 806.24 86.29 770.60 98.87 735.19 112.07 C 712.99 120.56 690.56 128.44 668.53 137.38 C 611.82 159.16 555.42 181.77 499.23 204.87 C 476.49 213.66 453.90 222.87 431.01 231.26 C 357.63 258.29 283.48 283.42 208.03 304.10 C 199.76 306.51 191.52 309.02 183.10 310.89 C 128.61 325.83 73.45 338.28 17.96 348.94 C 11.99 350.22 5.91 351.03 0.00 352.62 L 0.00 0.00 Z" />
</g>
</svg>
