<?xml version="1.0" encoding="UTF-8" ?>
<!DOCTYPE svg PUBLIC "-//W3C//DTD SVG 1.1//EN" "http://www.w3.org/Graphics/SVG/1.1/DTD/svg11.dtd">
<svg  viewBox="0 0 1920 389" version="1.1" xmlns="http://www.w3.org/2000/svg">
<g id="#75af26ff">
<path fill="#75af26" opacity="1.00" d=" M 1838.80 17.14 C 1865.71 10.79 1893.03 6.24 1920.00 0.31 L 1920.00 389.00 L 0.00 389.00 L 0.00 177.19 C 10.89 179.53 21.52 183.07 32.30 185.93 C 56.11 193.51 79.89 201.24 103.23 210.16 C 149.16 226.79 195.31 242.83 242.05 257.05 C 295.00 273.22 348.32 288.32 402.29 300.72 C 434.74 308.05 467.19 315.40 499.91 321.42 C 519.45 324.71 538.98 327.98 558.63 330.48 C 579.38 333.20 600.25 334.86 621.10 336.60 C 647.97 339.40 674.95 340.79 701.96 341.53 C 714.98 341.49 728.03 341.84 741.03 340.93 C 785.89 339.90 830.55 334.99 875.00 328.95 C 913.89 322.89 952.86 316.56 990.82 305.94 C 1003.81 302.16 1016.87 298.61 1029.75 294.45 C 1075.68 279.87 1121.27 264.25 1166.52 247.69 C 1186.48 240.39 1206.32 232.74 1226.29 225.46 C 1285.48 202.48 1344.67 179.49 1403.34 155.21 C 1423.27 146.94 1443.47 139.35 1463.53 131.39 C 1501.59 116.63 1540.17 103.25 1578.73 89.87 C 1620.74 75.98 1662.85 62.32 1705.56 50.73 C 1716.00 47.83 1726.31 44.45 1736.91 42.13 C 1759.11 35.88 1781.54 30.43 1803.96 25.01 C 1815.62 22.58 1827.07 19.23 1838.80 17.14 Z" />
</g>
</svg>
